
						<svg width="24" height="24" viewBox="0 0 24 24" fill="none" xmlns="http://www.w3.org/2000/svg">
<path d="M17.2 17.2V13.4642C17.2 11.6282 16.8048 10.2257 14.6628 10.2257C13.63 10.2257 12.9415 10.7867 12.661 11.3222H12.6355V10.3915H10.6083V17.2H12.7248V13.8212C12.7248 12.9287 12.8905 12.0745 13.987 12.0745C15.0708 12.0745 15.0835 13.0817 15.0835 13.8722V17.1872H17.2V17.2Z" fill="black"></path>
<path d="M7.16571 10.3915H9.28221V17.2H7.16571V10.3915Z" fill="black"></path>
<path d="M8.224 7C7.54825 7 7 7.54825 7 8.224C7 8.89975 7.54825 9.46075 8.224 9.46075C8.89975 9.46075 9.448 8.89975 9.448 8.224C9.448 7.54825 8.89975 7 8.224 7Z" fill="black"></path>
</svg>
					